<?xml version="1.0" encoding="UTF-8" standalone="no"?>
<!DOCTYPE svg PUBLIC "-//W3C//DTD SVG 1.1//EN" "http://www.w3.org/Graphics/SVG/1.1/DTD/svg11.dtd">
<svg version="1.1" xmlns="http://www.w3.org/2000/svg" xmlns:xlink="http://www.w3.org/1999/xlink" preserveAspectRatio="xMidYMid meet" viewBox="0 0 640 640" width="48" height="48"><defs><path d="M334.3 439.32L175.58 439.32L175.58 178.73L451.61 178.73L451.61 369.16L493.02 369.16L493.02 148.66L134.18 148.66L134.18 469.39L334.3 469.39L334.3 439.32ZM361.9 386.59L361.9 469.39L493.02 386.59L361.9 386.59Z" id="bnhxhw4g"></path></defs><g><g><g><filter id="shadow401619" x="125.18" y="139.66" width="377.84" height="339.72" filterUnits="userSpaceOnUse" primitiveUnits="userSpaceOnUse"><feFlood></feFlood><feComposite in2="SourceAlpha" operator="in"></feComposite><feGaussianBlur stdDeviation="1"></feGaussianBlur><feOffset dx="1" dy="1" result="afterOffset"></feOffset><feFlood flood-color="#000000" flood-opacity="0.5"></feFlood><feComposite in2="afterOffset" operator="in"></feComposite><feMorphology operator="dilate" radius="1"></feMorphology><feComposite in2="SourceAlpha" operator="out"></feComposite></filter><path d="M334.3 439.32L175.58 439.32L175.58 178.73L451.61 178.73L451.61 369.16L493.02 369.16L493.02 148.66L134.18 148.66L134.18 469.39L334.3 469.39L334.3 439.32ZM361.9 386.59L361.9 469.39L493.02 386.59L361.9 386.59Z" id="a1l3siKDyK" fill="white" fill-opacity="1" filter="url(#shadow401619)"></path></g><use xlink:href="#bnhxhw4g" opacity="1" fill="#000000" fill-opacity="1"></use></g></g></svg>