<svg xmlns="http://www.w3.org/2000/svg" xmlns:se="http://svg-edit.googlecode.com" xmlns:xlink="http://www.w3.org/1999/xlink" xmlns:dc="http://purl.org/dc/elements/1.1/" xmlns:cc="http://creativecommons.org/ns#" xmlns:rdf="http://www.w3.org/1999/02/22-rdf-syntax-ns#" xmlns:inkscape="http://www.inkscape.org/namespaces/inkscape" width="359" height="430" style="">                                    <title>my vector image</title>                                    <!-- Created with Vector Paint - http://www.vectorpaint.yaks.com/ https://chrome.google.com/webstore/detail/hnbpdiengicdefcjecjbnjnoifekhgdo -->                                    <rect id="backgroundrect" width="100%" height="100%" x="0" y="0" fill="#FFFFFF" stroke="none" style="" class=""/>                                <g class="currentLayer" style=""><title>Layer 1</title><path fill="#4a90d6" fill-opacity="1" stroke="#ffffff" stroke-opacity="1" stroke-width="2" stroke-dasharray="none" stroke-linejoin="round" stroke-linecap="butt" stroke-dashoffset="" fill-rule="nonzero" opacity="1" marker-start="" marker-mid="" marker-end="" d="M141.7982177734375,108.26571941375732 C141.7982177734375,93.34859234193412 154.10484760769162,81.26571941375732 169.2982177734375,81.26571941375732 C184.49158793918338,81.26571941375732 196.7982177734375,93.34859234193412 196.7982177734375,108.26571941375732 C196.7982177734375,123.18284648558054 184.49158793918338,135.26571941375732 169.2982177734375,135.26571941375732 C154.10484760769162,135.26571941375732 141.7982177734375,123.18284648558054 141.7982177734375,108.26571941375732 z" id="svg_1" class=""/><path fill="#4a90d6" fill-opacity="1" stroke="#ffffff" stroke-opacity="1" stroke-width="2" stroke-dasharray="none" stroke-linejoin="round" stroke-linecap="butt" stroke-dashoffset="" fill-rule="nonzero" opacity="1" marker-start="" marker-mid="" marker-end="" d="M259.0010070800781,138.75522899627686 C259.0010070800781,123.83810192445367 271.30763691433225,111.75522899627686 286.5010070800781,111.75522899627686 C301.694377245824,111.75522899627686 314.0010070800781,123.83810192445367 314.0010070800781,138.75522899627686 C314.0010070800781,153.67235606810007 301.694377245824,165.75522899627686 286.5010070800781,165.75522899627686 C271.30763691433225,165.75522899627686 259.0010070800781,153.67235606810007 259.0010070800781,138.75522899627686 z" class="" id="svg_3"/><rect fill="#87ceeb" stroke="#ffffff" stroke-width="2" stroke-linejoin="round" stroke-dashoffset="" fill-rule="nonzero" id="svg_4" x="1" y="1" width="356.596435546875" height="427.1817932128906" style="color: rgb(0, 0, 0);" class="" fill-opacity="1"/><path fill="#ffffff" fill-opacity="1" stroke="#ffffff" stroke-opacity="1" stroke-width="2" stroke-dasharray="none" stroke-linejoin="round" stroke-linecap="butt" stroke-dashoffset="" fill-rule="nonzero" opacity="1" marker-start="" marker-mid="" marker-end="" d="M288.6923070591521,258.3169291546858 C288.6923070591521,246.21004626538013 298.51739646430565,236.40347112504247 310.6471364706679,236.40347112504247 C322.7768764770299,236.40347112504247 332.6019658821833,246.21004626538013 332.6019658821833,258.3169291546858 C332.6019658821833,270.42381204399163 322.7768764770299,280.23038718432923 310.6471364706679,280.23038718432923 C298.51739646430565,280.23038718432923 288.6923070591521,270.42381204399163 288.6923070591521,258.3169291546858 z" class="" id="svg_18"/><path fill="#ffffff" fill-opacity="1" stroke="#ffffff" stroke-opacity="1" stroke-width="2" stroke-dasharray="none" stroke-linejoin="round" stroke-linecap="butt" stroke-dashoffset="" fill-rule="nonzero" opacity="1" marker-start="" marker-mid="" marker-end="" d="M27.31301743207689,258.3169334462202 C27.31301743207689,246.21005055691455 37.13810683723045,236.4034754165769 49.26784684359268,236.4034754165769 C61.39758684995468,236.4034754165769 71.22267625510813,246.21005055691455 71.22267625510813,258.3169334462202 C71.22267625510813,270.42381633552606 61.39758684995468,280.23039147586366 49.26784684359268,280.23039147586366 C37.13810683723045,280.23039147586366 27.31301743207689,270.42381633552606 27.31301743207689,258.3169334462202 z" class="" id="svg_12"/><path fill="#ffffff" fill-opacity="1" stroke="#ffffff" stroke-opacity="1" stroke-width="2" stroke-dasharray="none" stroke-linejoin="round" stroke-linecap="butt" stroke-dashoffset="" fill-rule="nonzero" opacity="1" marker-start="" marker-mid="" marker-end="" d="M293.3077097562898,186.00125092842836 C293.3077097562898,171.34563488289672 305.2011706290418,159.4745858860161 319.88445565713084,159.4745858860161 C334.56774068521975,159.4745858860161 346.46120155797166,171.34563488289672 346.46120155797166,186.00125092842836 C346.46120155797166,200.65686697396004 334.56774068521975,212.52791597084064 319.88445565713084,212.52791597084064 C305.2011706290418,212.52791597084064 293.3077097562898,200.65686697396004 293.3077097562898,186.00125092842836 z" class="" id="svg_14"/><path fill="#ffffff" fill-opacity="1" stroke="#ffffff" stroke-opacity="1" stroke-width="2" stroke-dasharray="none" stroke-linejoin="round" stroke-linecap="butt" stroke-dashoffset="" fill-rule="nonzero" opacity="1" marker-start="" marker-mid="" marker-end="" d="M11.043584766780214,186.00124329903383 C11.043584766780214,171.3456272535022 22.937045639532244,159.47457825662156 37.62033066762126,159.47457825662156 C52.303615695710164,159.47457825662156 64.19707656846208,171.3456272535022 64.19707656846208,186.00124329903383 C64.19707656846208,200.6568593445655 52.303615695710164,212.5279083414461 37.62033066762126,212.5279083414461 C22.937045639532244,212.5279083414461 11.043584766780214,200.6568593445655 11.043584766780214,186.00124329903383 z" class="" id="svg_8"/><path fill="#ffffff" fill-opacity="1" stroke="#ffffff" stroke-opacity="1" stroke-width="2" stroke-dasharray="none" stroke-linejoin="round" stroke-linecap="butt" stroke-dashoffset="" fill-rule="nonzero" opacity="1" marker-start="" marker-mid="" marker-end="" d="M213.3207666497177,159.8510242449577 C213.3207666497177,146.0473875230294 224.5228213940486,134.8664417782675 238.35251860927167,134.8664417782675 C252.18221582449485,134.8664417782675 263.3842705688254,146.0473875230294 263.3842705688254,159.8510242449577 C263.3842705688254,173.65466096688604 252.18221582449485,184.83560671164796 238.35251860927167,184.83560671164796 C224.5228213940486,184.83560671164796 213.3207666497177,173.65466096688604 213.3207666497177,159.8510242449577 z" class="" id="svg_15"/><path fill="#ffffff" fill-opacity="1" stroke="#ffffff" stroke-opacity="1" stroke-width="2" stroke-dasharray="none" stroke-linejoin="round" stroke-linecap="butt" stroke-dashoffset="" fill-rule="nonzero" opacity="1" marker-start="" marker-mid="" marker-end="" d="M97.84907465385857,159.85102427476002 C97.84907465385857,146.04738755283174 109.05112939818946,134.86644180806982 122.88082661341252,134.86644180806982 C136.7105238286357,134.86644180806982 147.91257857296625,146.04738755283174 147.91257857296625,159.85102427476002 C147.91257857296625,173.65466099668836 136.7105238286357,184.83560674145028 122.88082661341252,184.83560674145028 C109.05112939818946,184.83560674145028 97.84907465385857,173.65466099668836 97.84907465385857,159.85102427476002 z" class="" id="svg_6"/><path fill="#ffffff" fill-opacity="1" stroke="#ffffff" stroke-opacity="1" stroke-width="2" stroke-dasharray="none" stroke-linejoin="round" stroke-linecap="butt" stroke-dashoffset="" fill-rule="nonzero" opacity="1" marker-start="" marker-mid="" marker-end="" d="M241.78230828951524,295.60503429048913 C241.78230828951524,286.2553763733646 249.36982902323712,278.6821534604937 258.73713857104184,278.6821534604937 C268.1044481188465,278.6821534604937 275.69196885256827,286.2553763733646 275.69196885256827,295.60503429048913 C275.69196885256827,304.9546922076138 268.1044481188465,312.52791512048464 258.73713857104184,312.52791512048464 C249.36982902323712,312.52791512048464 241.78230828951524,304.9546922076138 241.78230828951524,295.60503429048913 z" class="" id="svg_19"/><path fill="#ffffff" fill-opacity="1" stroke="#ffffff" stroke-opacity="1" stroke-width="2" stroke-dasharray="none" stroke-linejoin="round" stroke-linecap="butt" stroke-dashoffset="" fill-rule="nonzero" opacity="1" marker-start="" marker-mid="" marker-end="" d="M82.47196705053972,295.60503381365197 C82.47196705053972,286.2553758965274 90.05948778426159,278.6821529836565 99.42679733206631,278.6821529836565 C108.79410687987098,278.6821529836565 116.38162761359274,286.2553758965274 116.38162761359274,295.60503381365197 C116.38162761359274,304.95469173077663 108.79410687987098,312.5279146436475 99.42679733206631,312.5279146436475 C90.05948778426159,312.5279146436475 82.47196705053972,304.95469173077663 82.47196705053972,295.60503381365197 z" class="" id="svg_13"/><path fill="#ffffff" fill-opacity="1" stroke="#ffffff" stroke-opacity="1" stroke-width="2" stroke-dasharray="none" stroke-linejoin="round" stroke-linecap="butt" stroke-dashoffset="" fill-rule="nonzero" opacity="1" marker-start="" marker-mid="" marker-end="" d="M142.6098291751864,54.1132468017198 C142.6098291751864,32.396960627152914 160.2332302738693,14.806768825753785 181.9905155808852,14.806768825753785 C203.747800887901,14.806768825753785 221.3712019865839,32.396960627152914 221.3712019865839,54.1132468017198 C221.3712019865839,75.82953297628663 203.747800887901,93.41972477768579 181.9905155808852,93.41972477768579 C160.2332302738693,93.41972477768579 142.6098291751864,75.82953297628663 142.6098291751864,54.1132468017198 z" id="svg_7" class=""/><path fill="#ffffff" fill-opacity="1" stroke="#ffffff" stroke-opacity="1" stroke-width="2" stroke-dasharray="none" stroke-linejoin="round" stroke-linecap="butt" stroke-dashoffset="" fill-rule="nonzero" opacity="1" marker-start="" marker-mid="" marker-end="" d="M256.7982241097745,100.79592800733717 C256.7982241097745,83.81488518897362 270.5788367917171,70.06024050609916 287.5919388681893,70.06024050609916 C304.6050409446616,70.06024050609916 318.3856536266039,83.81488518897362 318.3856536266039,100.79592800733717 C318.3856536266039,117.77697082570069 304.6050409446616,131.5316155085752 287.5919388681893,131.5316155085752 C270.5788367917171,131.5316155085752 256.7982241097745,117.77697082570069 256.7982241097745,100.79592800733717 z" class="" id="svg_10"/><path fill="#ffffff" fill-opacity="1" stroke="#ffffff" stroke-opacity="1" stroke-width="2" stroke-dasharray="none" stroke-linejoin="round" stroke-linecap="butt" stroke-dashoffset="" fill-rule="nonzero" opacity="1" marker-start="" marker-mid="" marker-end="" d="M45.63711516893471,100.30245829221877 C45.63711516893471,83.32141547385521 59.41772785087733,69.56677079098075 76.43082992734958,69.56677079098075 C93.44393200382183,69.56677079098075 107.22454468576416,83.32141547385521 107.22454468576416,100.30245829221877 C107.22454468576416,117.28350111058228 93.44393200382183,131.03814579345678 76.43082992734958,131.03814579345678 C59.41772785087733,131.03814579345678 45.63711516893471,117.28350111058228 45.63711516893471,100.30245829221877 z" class="" id="svg_2"/><path fill="#ffffff" stroke="#ffffff" stroke-width="2" stroke-linejoin="round" stroke-dashoffset="" fill-rule="nonzero" marker-start="" marker-mid="" marker-end="" id="svg_5" d="M180.24529777343753,428.7666894137573 L145.71471777343748,426.5823494137573 L151.7807677734375,285.1090194137573 C154.39103777343752,242.8030094137573 162.69668777343747,151.08965941375732 180.39661777343753,151.11440941375733 C198.09654777343752,151.1391594137573 209.2501077734375,242.35984941375733 212.4453677734375,285.0344394137573 L216.4518777734375,426.5165794137573 L180.24529777343753,428.7666894137573 z" style="color: rgb(135, 206, 235);" class=""/><path fill="#ffffff" stroke="#ffffff" stroke-width="2" stroke-linejoin="round" stroke-dashoffset="" fill-rule="nonzero" marker-start="" marker-mid="" marker-end="" d="M144.3310730538559,341.72336717858315 L167.53837305385588,341.95622717858316 L164.14061305385587,259.80052717858314 C162.5114630538559,236.61377717858312 153.5167530538559,179.98063717858315 144.63964305385593,179.97700717858316 C135.76253305385592,179.97337717858312 126.69365305385588,236.54234717858316 125.09203305385586,259.81053717858316 L121.66074305385587,341.90555717858314 L144.3310730538559,341.72336717858315 z" style="color: rgb(135, 206, 235);" class="" id="svg_16" transform="rotate(-36.71543502807617 144.59957885742193,260.9666137695313) "/><path fill="#ffffff" stroke="#ffffff" stroke-width="2" stroke-linejoin="round" stroke-dashoffset="" fill-rule="nonzero" marker-start="" marker-mid="" marker-end="" d="M219.33107362010003,340.72336920514107 L242.5383736201,340.9562292051411 L239.1406136201,258.80052920514106 C237.51146362010002,235.61377920514104 228.51675362010002,178.98063920514107 219.63964362010006,178.9770092051411 C210.76253362010004,178.97337920514104 201.6936536201,235.54234920514108 200.09203362009998,258.8105392051411 L196.6607436201,340.90555920514106 L219.33107362010003,340.72336920514107 z" style="color: rgb(135, 206, 235);" class="" id="svg_11" transform="rotate(38.35697937011719 219.5995483398437,259.96661376953125) "/></g></svg>