<svg xmlns="http://www.w3.org/2000/svg" xmlns:se="http://svg-edit.googlecode.com" xmlns:xlink="http://www.w3.org/1999/xlink" xmlns:dc="http://purl.org/dc/elements/1.1/" xmlns:cc="http://creativecommons.org/ns#" xmlns:rdf="http://www.w3.org/1999/02/22-rdf-syntax-ns#" xmlns:inkscape="http://www.inkscape.org/namespaces/inkscape" width="777" height="480" style="">                                    <title>my vector image</title>                                    <!-- Created with Vector Paint - http://www.vectorpaint.yaks.com/ https://chrome.google.com/webstore/detail/hnbpdiengicdefcjecjbnjnoifekhgdo -->                                    <rect id="backgroundrect" width="100%" height="100%" x="0" y="0" fill="#FFFFFF" stroke="none"/>                                <g class="currentLayer" style=""><title>Layer 1</title><path fill="#4a90d6" fill-opacity="1" stroke="#ffffff" stroke-opacity="1" stroke-width="2" stroke-dasharray="none" stroke-linejoin="round" stroke-linecap="butt" stroke-dashoffset="" fill-rule="nonzero" opacity="1" marker-start="" marker-mid="" marker-end="" d="M351,122 C351,107.0828729281768 363.3066298342541,95 378.5,95 C393.6933701657459,95 406,107.0828729281768 406,122 C406,136.91712707182322 393.6933701657459,149 378.5,149 C363.3066298342541,149 351,136.91712707182322 351,122 Z" id="svg_1" class=""/><path fill="#4a90d6" fill-opacity="1" stroke="#ffffff" stroke-opacity="1" stroke-width="2" stroke-dasharray="none" stroke-linejoin="round" stroke-linecap="butt" stroke-dashoffset="" fill-rule="nonzero" opacity="1" marker-start="" marker-mid="" marker-end="" d="M468.2027893066406,152.48950958251953 C468.2027893066406,137.57238251069634 480.50941914089475,125.48950958251953 495.7027893066406,125.48950958251953 C510.8961594723865,125.48950958251953 523.2027893066406,137.57238251069634 523.2027893066406,152.48950958251953 C523.2027893066406,167.40663665434275 510.8961594723865,179.48950958251953 495.7027893066406,179.48950958251953 C480.50941914089475,179.48950958251953 468.2027893066406,167.40663665434275 468.2027893066406,152.48950958251953 z" class="" id="svg_3"/><rect fill="#87ceeb" stroke="#ffffff" stroke-width="2" stroke-linejoin="round" stroke-dashoffset="" fill-rule="nonzero" id="svg_4" x="210.2017822265625" y="14.734280586242676" width="356.596435546875" height="427.1817932128906" style="color: rgb(0, 0, 0);" class="" fill-opacity="1"/><path fill="#ffffff" fill-opacity="1" stroke="#ffffff" stroke-opacity="1" stroke-width="2" stroke-dasharray="none" stroke-linejoin="round" stroke-linecap="butt" stroke-dashoffset="" fill-rule="nonzero" opacity="1" marker-start="" marker-mid="" marker-end="" d="M497.8940892857146,272.05120974092847 C497.8940892857146,259.9443268516228 507.71917869086815,250.13775171128515 519.8489186972304,250.13775171128515 C531.9786587035924,250.13775171128515 541.8037481087458,259.9443268516228 541.8037481087458,272.05120974092847 C541.8037481087458,284.1580926302343 531.9786587035924,293.9646677705719 519.8489186972304,293.9646677705719 C507.71917869086815,293.9646677705719 497.8940892857146,284.1580926302343 497.8940892857146,272.05120974092847 z" class="" id="svg_18"/><path fill="#ffffff" fill-opacity="1" stroke="#ffffff" stroke-opacity="1" stroke-width="2" stroke-dasharray="none" stroke-linejoin="round" stroke-linecap="butt" stroke-dashoffset="" fill-rule="nonzero" opacity="1" marker-start="" marker-mid="" marker-end="" d="M236.5147996586394,272.0512140324629 C236.5147996586394,259.9443311431572 246.33988906379295,250.13775600281957 258.4696290701552,250.13775600281957 C270.5993690765172,250.13775600281957 280.4244584816706,259.9443311431572 280.4244584816706,272.0512140324629 C280.4244584816706,284.15809692176873 270.5993690765172,293.96467206210633 258.4696290701552,293.96467206210633 C246.33988906379295,293.96467206210633 236.5147996586394,284.15809692176873 236.5147996586394,272.0512140324629 z" class="" id="svg_12"/><path fill="#ffffff" fill-opacity="1" stroke="#ffffff" stroke-opacity="1" stroke-width="2" stroke-dasharray="none" stroke-linejoin="round" stroke-linecap="butt" stroke-dashoffset="" fill-rule="nonzero" opacity="1" marker-start="" marker-mid="" marker-end="" d="M502.5094919828523,199.73553151467104 C502.5094919828523,185.0799154691394 514.4029528556043,173.20886647225876 529.0862378836933,173.20886647225876 C543.7695229117822,173.20886647225876 555.6629837845342,185.0799154691394 555.6629837845342,199.73553151467104 C555.6629837845342,214.3911475602027 543.7695229117822,226.2621965570833 529.0862378836933,226.2621965570833 C514.4029528556043,226.2621965570833 502.5094919828523,214.3911475602027 502.5094919828523,199.73553151467104 z" class="" id="svg_14"/><path fill="#ffffff" fill-opacity="1" stroke="#ffffff" stroke-opacity="1" stroke-width="2" stroke-dasharray="none" stroke-linejoin="round" stroke-linecap="butt" stroke-dashoffset="" fill-rule="nonzero" opacity="1" marker-start="" marker-mid="" marker-end="" d="M220.2453669933427,199.7355238852765 C220.2453669933427,185.07990783974486 232.13882786609474,173.20885884286423 246.82211289418376,173.20885884286423 C261.50539792227266,173.20885884286423 273.3988587950246,185.07990783974486 273.3988587950246,199.7355238852765 C273.3988587950246,214.39113993080818 261.50539792227266,226.26218892768878 246.82211289418376,226.26218892768878 C232.13882786609474,226.26218892768878 220.2453669933427,214.39113993080818 220.2453669933427,199.7355238852765 z" class="" id="svg_8"/><path fill="#ffffff" fill-opacity="1" stroke="#ffffff" stroke-opacity="1" stroke-width="2" stroke-dasharray="none" stroke-linejoin="round" stroke-linecap="butt" stroke-dashoffset="" fill-rule="nonzero" opacity="1" marker-start="" marker-mid="" marker-end="" d="M422.5225488762802,173.58530483120038 C422.5225488762802,159.7816681092721 433.7246036206111,148.60072236451018 447.55430083583417,148.60072236451018 C461.38399805105735,148.60072236451018 472.5860527953879,159.7816681092721 472.5860527953879,173.58530483120038 C472.5860527953879,187.38894155312872 461.38399805105735,198.56988729789063 447.55430083583417,198.56988729789063 C433.7246036206111,198.56988729789063 422.5225488762802,187.38894155312872 422.5225488762802,173.58530483120038 z" class="" id="svg_15"/><path fill="#ffffff" fill-opacity="1" stroke="#ffffff" stroke-opacity="1" stroke-width="2" stroke-dasharray="none" stroke-linejoin="round" stroke-linecap="butt" stroke-dashoffset="" fill-rule="nonzero" opacity="1" marker-start="" marker-mid="" marker-end="" d="M307.05085688042107,173.5853048610027 C307.05085688042107,159.7816681390744 318.25291162475196,148.6007223943125 332.082608839975,148.6007223943125 C345.9123060551982,148.6007223943125 357.11436079952875,159.7816681390744 357.11436079952875,173.5853048610027 C357.11436079952875,187.38894158293104 345.9123060551982,198.56988732769295 332.082608839975,198.56988732769295 C318.25291162475196,198.56988732769295 307.05085688042107,187.38894158293104 307.05085688042107,173.5853048610027 z" class="" id="svg_6"/><path fill="#ffffff" fill-opacity="1" stroke="#ffffff" stroke-opacity="1" stroke-width="2" stroke-dasharray="none" stroke-linejoin="round" stroke-linecap="butt" stroke-dashoffset="" fill-rule="nonzero" opacity="1" marker-start="" marker-mid="" marker-end="" d="M450.98409051607774,309.3393148767318 C450.98409051607774,299.98965695960726 458.5716112497996,292.41643404673636 467.93892079760434,292.41643404673636 C477.306230345409,292.41643404673636 484.89375107913077,299.98965695960726 484.89375107913077,309.3393148767318 C484.89375107913077,318.68897279385646 477.306230345409,326.2621957067273 467.93892079760434,326.2621957067273 C458.5716112497996,326.2621957067273 450.98409051607774,318.68897279385646 450.98409051607774,309.3393148767318 z" class="" id="svg_19"/><path fill="#ffffff" fill-opacity="1" stroke="#ffffff" stroke-opacity="1" stroke-width="2" stroke-dasharray="none" stroke-linejoin="round" stroke-linecap="butt" stroke-dashoffset="" fill-rule="nonzero" opacity="1" marker-start="" marker-mid="" marker-end="" d="M291.6737492771022,309.33931439989465 C291.6737492771022,299.9896564827701 299.2612700108241,292.4164335698992 308.6285795586288,292.4164335698992 C317.9958891064335,292.4164335698992 325.58340984015524,299.9896564827701 325.58340984015524,309.33931439989465 C325.58340984015524,318.6889723170193 317.9958891064335,326.26219522989015 308.6285795586288,326.26219522989015 C299.2612700108241,326.26219522989015 291.6737492771022,318.6889723170193 291.6737492771022,309.33931439989465 z" class="" id="svg_13"/><path fill="#ffffff" fill-opacity="1" stroke="#ffffff" stroke-opacity="1" stroke-width="2" stroke-dasharray="none" stroke-linejoin="round" stroke-linecap="butt" stroke-dashoffset="" fill-rule="nonzero" opacity="1" marker-start="" marker-mid="" marker-end="" d="M351.8116114017489,67.84752738796247 C351.8116114017489,46.13124121339559 369.4350125004318,28.54104941199646 391.1922978074477,28.54104941199646 C412.9495831144635,28.54104941199646 430.5729842131464,46.13124121339559 430.5729842131464,67.84752738796247 C430.5729842131464,89.5638135625293 412.9495831144635,107.15400536392846 391.1922978074477,107.15400536392846 C369.4350125004318,107.15400536392846 351.8116114017489,89.5638135625293 351.8116114017489,67.84752738796247 z" id="svg_7" class=""/><path fill="#ffffff" fill-opacity="1" stroke="#ffffff" stroke-opacity="1" stroke-width="2" stroke-dasharray="none" stroke-linejoin="round" stroke-linecap="butt" stroke-dashoffset="" fill-rule="nonzero" opacity="1" marker-start="" marker-mid="" marker-end="" d="M466.000006336337,114.53020859357984 C466.000006336337,97.5491657752163 479.7806190182796,83.79452109234184 496.7937210947518,83.79452109234184 C513.8068231712241,83.79452109234184 527.5874358531664,97.5491657752163 527.5874358531664,114.53020859357984 C527.5874358531664,131.51125141194336 513.8068231712241,145.26589609481786 496.7937210947518,145.26589609481786 C479.7806190182796,145.26589609481786 466.000006336337,131.51125141194336 466.000006336337,114.53020859357984 z" class="" id="svg_10"/><path fill="#ffffff" fill-opacity="1" stroke="#ffffff" stroke-opacity="1" stroke-width="2" stroke-dasharray="none" stroke-linejoin="round" stroke-linecap="butt" stroke-dashoffset="" fill-rule="nonzero" opacity="1" marker-start="" marker-mid="" marker-end="" d="M254.8388973954972,114.03673887846145 C254.8388973954972,97.05569606009789 268.6195100774398,83.30105137722343 285.6326121539121,83.30105137722343 C302.6457142303843,83.30105137722343 316.42632691232666,97.05569606009789 316.42632691232666,114.03673887846145 C316.42632691232666,131.01778169682495 302.6457142303843,144.77242637969945 285.6326121539121,144.77242637969945 C268.6195100774398,144.77242637969945 254.8388973954972,131.01778169682495 254.8388973954972,114.03673887846145 z" class="" id="svg_2"/><path fill="#ffffff" stroke="#ffffff" stroke-width="2" stroke-linejoin="round" stroke-dashoffset="" fill-rule="nonzero" marker-start="" marker-mid="" marker-end="" id="svg_5" d="M389.44708,442.50097L354.9165,440.31663L360.98255,298.8433C363.59282,256.53729 371.89847,164.82394 389.5984,164.84869C407.29833,164.87344 418.45189,256.09413 421.64715,298.76872L425.65366,440.25086L389.44708,442.50097z" style="color: rgb(135, 206, 235);" class=""/><path fill="#ffffff" stroke="#ffffff" stroke-width="2" stroke-linejoin="round" stroke-dashoffset="" fill-rule="nonzero" marker-start="" marker-mid="" marker-end="" d="M353.5328552804184,355.4576477648258 L376.7401552804184,355.69050776482584 L373.3423952804184,273.5348077648258 C371.7132452804184,250.3480577648258 362.7185352804184,193.71491776482583 353.84142528041843,193.71128776482584 C344.9643152804184,193.7076577648258 335.8954352804184,250.27662776482583 334.29381528041836,273.54481776482584 L330.86252528041837,355.6398377648258 L353.5328552804184,355.4576477648258 z" style="color: rgb(135, 206, 235);" class="" id="svg_16" transform="rotate(-36.71543502807617 353.80136108398443,274.7008972167969) "/><path fill="#ffffff" stroke="#ffffff" stroke-width="2" stroke-linejoin="round" stroke-dashoffset="" fill-rule="nonzero" marker-start="" marker-mid="" marker-end="" d="M428.5328558466625,354.45764979138374 L451.7401558466625,354.69050979138376 L448.3423958466625,272.53480979138374 C446.7132458466625,249.34805979138372 437.7185358466625,192.71491979138375 428.84142584666256,192.71128979138376 C419.96431584666254,192.70765979138372 410.8954358466625,249.27662979138375 409.2938158466625,272.54481979138376 L405.8625258466625,354.63983979138374 L428.5328558466625,354.45764979138374 z" style="color: rgb(135, 206, 235);" class="" id="svg_11" transform="rotate(38.35697937011719 428.8013305664061,273.70089721679693) "/></g></svg>